<svg xmlns="http://www.w3.org/2000/svg" viewBox="0 0 120 120" fill="none">
  <defs>
    <linearGradient id="inp_grad" x1="0%" y1="0%" x2="100%" y2="100%">
      <stop offset="0%" style="stop-color:#5433ff;stop-opacity:1" />
      <stop offset="100%" style="stop-color:#20bdff;stop-opacity:1" />
    </linearGradient>
    <filter id="inp_shadow" x="-20%" y="-20%" width="140%" height="140%">
      <feDropShadow dx="0" dy="4" stdDeviation="3" flood-color:#20bdff" flood-opacity="0.3"/>
    </filter>
  </defs>
  <circle cx="60" cy="60" r="50" fill="url(#inp_grad)" filter="url(#inp_shadow)" opacity="0.1"/>
  <!-- Keyboard -->
  <rect x="15" y="60" width="65" height="28" rx="4" fill="url(#inp_grad)" opacity="0.15" stroke="url(#inp_grad)" stroke-width="2.5"/>
  <!-- Keys row 1 -->
  <rect x="20" y="65" width="7" height="7" rx="1" fill="url(#inp_grad)" opacity="0.6"/>
  <rect x="29" y="65" width="7" height="7" rx="1" fill="url(#inp_grad)" opacity="0.6"/>
  <rect x="38" y="65" width="7" height="7" rx="1" fill="url(#inp_grad)" opacity="0.6"/>
  <rect x="47" y="65" width="7" height="7" rx="1" fill="url(#inp_grad)" opacity="0.6"/>
  <rect x="56" y="65" width="7" height="7" rx="1" fill="url(#inp_grad)" opacity="0.6"/>
  <rect x="65" y="65" width="10" height="7" rx="1" fill="url(#inp_grad)" opacity="0.6"/>
  <!-- Keys row 2 -->
  <rect x="20" y="75" width="10" height="7" rx="1" fill="url(#inp_grad)" opacity="0.6"/>
  <rect x="32" y="75" width="30" height="7" rx="1" fill="url(#inp_grad)"/>
  <rect x="65" y="75" width="10" height="7" rx="1" fill="url(#inp_grad)" opacity="0.6"/>
  <!-- Touchpad -->
  <rect x="82" y="50" width="25" height="35" rx="4" fill="url(#inp_grad)" opacity="0.15" stroke="url(#inp_grad)" stroke-width="2.5"/>
  <rect x="86" y="54" width="17" height="22" rx="2" fill="url(#inp_grad)" opacity="0.3"/>
  <rect x="86" y="78" width="8" height="4" rx="1" fill="url(#inp_grad)" opacity="0.5"/>
  <rect x="95" y="78" width="8" height="4" rx="1" fill="url(#inp_grad)" opacity="0.5"/>
  <!-- Cursor -->
  <path d="M92 30 L92 48 L97 43 L102 52 L105 50 L100 41 L106 41 Z" fill="url(#inp_grad)"/>
</svg>
