<svg xmlns="http://www.w3.org/2000/svg" viewBox="0 0 120 120" fill="none">
  <defs>
    <linearGradient id="disk_grad" x1="0%" y1="0%" x2="100%" y2="100%">
      <stop offset="0%" style="stop-color:#373b44;stop-opacity:1" />
      <stop offset="100%" style="stop-color:#4286f4;stop-opacity:1" />
    </linearGradient>
    <filter id="disk_shadow" x="-20%" y="-20%" width="140%" height="140%">
      <feDropShadow dx="0" dy="4" stdDeviation="3" flood-color="#4286f4" flood-opacity="0.3"/>
    </filter>
  </defs>
  <circle cx="60" cy="60" r="50" fill="url(#disk_grad)" filter="url(#disk_shadow)" opacity="0.1"/>
  <!-- HDD -->
  <rect x="20" y="40" width="42" height="50" rx="4" fill="url(#disk_grad)" opacity="0.15" stroke="url(#disk_grad)" stroke-width="2.5"/>
  <circle cx="41" cy="65" r="15" fill="none" stroke="url(#disk_grad)" stroke-width="2"/>
  <circle cx="41" cy="65" r="8" fill="none" stroke="url(#disk_grad)" stroke-width="2"/>
  <circle cx="41" cy="65" r="3" fill="url(#disk_grad)"/>
  <rect x="25" y="45" width="8" height="6" rx="1" fill="url(#disk_grad)" opacity="0.5"/>
  <!-- SSD -->
  <rect x="68" y="45" width="35" height="40" rx="3" fill="url(#disk_grad)" opacity="0.15" stroke="url(#disk_grad)" stroke-width="2.5"/>
  <rect x="73" y="50" width="25" height="4" rx="1" fill="url(#disk_grad)" opacity="0.6"/>
  <text x="78" y="73" font-family="Arial" font-size="10" font-weight="bold" fill="url(#disk_grad)">SSD</text>
  <!-- Connector pins -->
  <rect x="72" y="80" width="3" height="4" fill="url(#disk_grad)"/>
  <rect x="77" y="80" width="3" height="4" fill="url(#disk_grad)"/>
  <rect x="82" y="80" width="3" height="4" fill="url(#disk_grad)"/>
  <rect x="87" y="80" width="3" height="4" fill="url(#disk_grad)"/>
  <rect x="92" y="80" width="3" height="4" fill="url(#disk_grad)"/>
</svg>
