<svg xmlns="http://www.w3.org/2000/svg" viewBox="0 0 120 120" fill="none">
  <defs>
    <linearGradient id="eq_grad" x1="0%" y1="0%" x2="100%" y2="100%">
      <stop offset="0%" style="stop-color:#0f2027;stop-opacity:1" />
      <stop offset="50%" style="stop-color:#203a43;stop-opacity:1" />
      <stop offset="100%" style="stop-color:#2c5364;stop-opacity:1" />
    </linearGradient>
    <filter id="eq_shadow" x="-20%" y="-20%" width="140%" height="140%">
      <feDropShadow dx="0" dy="4" stdDeviation="3" flood-color="#2c5364" flood-opacity="0.3"/>
    </filter>
  </defs>
  <style>
    @keyframes load-bar {
       0% { width: 0; opacity: 0.1; }
       50% { width: 35px; opacity: 1; }
       100% { width: 35px; opacity: 0.3; }
    }
    @keyframes pulse-screen {
       0%, 100% { opacity: 0.3; }
       50% { opacity: 0.8; }
    }
    .screen-line { animation: pulse-screen 2s infinite ease-in-out; }
    .screen-line:nth-child(2) { animation-delay: 0.2s; }
    .screen-line:nth-child(3) { animation-delay: 0.4s; }
  </style>
  <circle cx="60" cy="60" r="50" fill="url(#eq_grad)" filter="url(#eq_shadow)" opacity="0.1"/>
  <!-- Laptop -->
  <rect x="22" y="30" width="55" height="38" rx="3" fill="url(#eq_grad)" opacity="0.15" stroke="url(#eq_grad)" stroke-width="2.5"/>
  <rect x="27" y="35" width="45" height="28" rx="2" fill="url(#eq_grad)" opacity="0.3"/>
  <!-- Screen content -->
  <rect class="screen-line" x="30" y="38" width="18" height="8" rx="1" fill="url(#eq_grad)" opacity="0.3"/>
  <rect class="screen-line" x="30" y="48" width="39" height="3" rx="1" fill="url(#eq_grad)" opacity="0.3"/>
  <rect class="screen-line" x="30" y="53" width="35" height="3" rx="1" fill="url(#eq_grad)" opacity="0.3"/>
  <rect class="screen-line" x="30" y="58" width="28" height="3" rx="1" fill="url(#eq_grad)" opacity="0.3"/>
  <!-- Laptop base -->
  <path d="M18 68 Q20 73 25 73 L75 73 Q80 73 82 68" fill="url(#eq_grad)" opacity="0.15" stroke="url(#eq_grad)" stroke-width="2.5"/>
  <!-- Monitor -->
  <rect x="78" y="38" width="25" height="22" rx="2" fill="url(#eq_grad)" opacity="0.15" stroke="url(#eq_grad)" stroke-width="2"/>
  <rect x="81" y="41" width="19" height="16" rx="1" fill="url(#eq_grad)" opacity="0.3"/>
  <rect x="87" y="60" width="7" height="8" fill="url(#eq_grad)" opacity="0.5"/>
  <rect x="82" y="68" width="17" height="4" rx="1" fill="url(#eq_grad)"/>
  <!-- Keyboard mini -->
  <rect x="50" y="80" width="35" height="14" rx="2" fill="url(#eq_grad)" opacity="0.15" stroke="url(#eq_grad)" stroke-width="2"/>
  <rect x="54" y="84" width="27" height="6" rx="1" fill="url(#eq_grad)" opacity="0.3"/>
  <!-- Mouse mini -->
  <rect x="35" y="82" width="10" height="14" rx="5" fill="url(#eq_grad)" opacity="0.15" stroke="url(#eq_grad)" stroke-width="2"/>
</svg>
