<svg xmlns="http://www.w3.org/2000/svg" viewBox="0 0 120 120" fill="none">
  <defs>
    <linearGradient id="gen_grad" x1="0%" y1="0%" x2="100%" y2="100%">
      <stop offset="0%" style="stop-color:#8e9eab;stop-opacity:1" />
      <stop offset="100%" style="stop-color:#eef2f3;stop-opacity:1" />
    </linearGradient>
    <linearGradient id="gen_grad2" x1="0%" y1="0%" x2="100%" y2="100%">
      <stop offset="0%" style="stop-color:#636e72;stop-opacity:1" />
      <stop offset="100%" style="stop-color:#b2bec3;stop-opacity:1" />
    </linearGradient>
    <filter id="gen_shadow" x="-20%" y="-20%" width="140%" height="140%">
      <feDropShadow dx="0" dy="4" stdDeviation="3" flood-color="#636e72" flood-opacity="0.3"/>
    </filter>
  </defs>
  <style>
    @keyframes twinkle {
       0%, 100% { transform: scale(1) rotate(0deg); opacity: 0.8; }
       50% { transform: scale(1.2) rotate(15deg); opacity: 1; }
    }
    .star-badge { animation: twinkle 3s infinite ease-in-out; transform-origin: 60px 40px; }
  </style>
  <circle cx="60" cy="60" r="50" fill="url(#gen_grad2)" filter="url(#gen_shadow)" opacity="0.1"/>
  <!-- Box/Package -->
  <rect x="30" y="40" width="60" height="45" rx="3" fill="url(#gen_grad2)" opacity="0.15" stroke="url(#gen_grad2)" stroke-width="2.5"/>
  <!-- Box lid -->
  <polygon points="25,40 60,25 95,40 60,48" fill="url(#gen_grad2)" opacity="0.25" stroke="url(#gen_grad2)" stroke-width="2"/>
  <!-- Box center line -->
  <line x1="60" y1="48" x2="60" y2="85" stroke="url(#gen_grad2)" stroke-width="1.5" stroke-dasharray="3,2"/>
  <!-- Barcode -->
  <rect x="40" y="60" width="40" height="18" rx="2" fill="url(#gen_grad2)" opacity="0.2"/>
  <line x1="44" y1="63" x2="44" y2="74" stroke="url(#gen_grad2)" stroke-width="2"/>
  <line x1="49" y1="63" x2="49" y2="74" stroke="url(#gen_grad2)" stroke-width="1"/>
  <line x1="53" y1="63" x2="53" y2="74" stroke="url(#gen_grad2)" stroke-width="3"/>
  <line x1="59" y1="63" x2="59" y2="74" stroke="url(#gen_grad2)" stroke-width="1"/>
  <line x1="63" y1="63" x2="63" y2="74" stroke="url(#gen_grad2)" stroke-width="2"/>
  <line x1="68" y1="63" x2="68" y2="74" stroke="url(#gen_grad2)" stroke-width="1"/>
  <line x1="73" y1="63" x2="73" y2="74" stroke="url(#gen_grad2)" stroke-width="2"/>
  <!-- Star badge -->
  <polygon class="star-badge" points="60,32 62,37 68,37 63,41 65,46 60,43 55,46 57,41 52,37 58,37" fill="url(#gen_grad2)" opacity="0.8"/>
</svg>
