<svg xmlns="http://www.w3.org/2000/svg" viewBox="0 0 120 120" fill="none">
  <defs>
    <linearGradient id="tool_grad" x1="0%" y1="0%" x2="100%" y2="100%">
      <stop offset="0%" style="stop-color:#eb3349;stop-opacity:1" />
      <stop offset="100%" style="stop-color:#f45c43;stop-opacity:1" />
    </linearGradient>
    <filter id="tool_shadow" x="-20%" y="-20%" width="140%" height="140%">
      <feDropShadow dx="0" dy="4" stdDeviation="3" flood-color="#eb3349" flood-opacity="0.3"/>
    </filter>
  </defs>
  <style>
    @keyframes rise {
      0% { transform: translateY(0); opacity: 0.5; }
      100% { transform: translateY(-5px); opacity: 0; }
    }
    .heat-wave { animation: rise 2s infinite linear; }
    .heat-wave:nth-child(2) { animation-delay: 0.5s; }
    .heat-wave:nth-child(3) { animation-delay: 1s; }
  </style>
  <circle cx="60" cy="60" r="50" fill="url(#tool_grad)" filter="url(#tool_shadow)" opacity="0.1"/>
  <!-- Screwdriver -->
  <rect x="22" y="75" width="45" height="8" rx="2" fill="url(#tool_grad)" opacity="0.7"/>
  <polygon points="67,79 95,79 95,79 75,73 75,85" fill="url(#tool_grad)" opacity="0.5"/>
  <rect x="28" y="77" width="10" height="4" rx="1" fill="url(#tool_grad)" opacity="0.3"/>
  <!-- Wrench -->
  <path d="M30 35 L25 25 Q30 20 40 25 L35 35 L45 55 L40 60 Z" fill="url(#tool_grad)" opacity="0.15" stroke="url(#tool_grad)" stroke-width="2.5"/>
  <circle cx="32" cy="27" r="5" fill="none" stroke="url(#tool_grad)" stroke-width="2"/>
  <!-- Soldering iron -->
  <rect x="58" y="28" width="35" height="10" rx="3" fill="url(#tool_grad)" opacity="0.15" stroke="url(#tool_grad)" stroke-width="2"/>
  <polygon points="58,33 45,33 40,38 45,43 58,43" fill="url(#tool_grad)" opacity="0.6"/>
  <circle cx="40" cy="38" r="3" fill="url(#tool_grad)"/>
  <!-- Heat waves -->
  <path class="heat-wave" d="M35 48 Q33 52 35 56" fill="none" stroke="url(#tool_grad)" stroke-width="1.5" opacity="0.5"/>
  <path class="heat-wave" d="M40 48 Q38 52 40 56" fill="none" stroke="url(#tool_grad)" stroke-width="1.5" opacity="0.5"/>
  <path class="heat-wave" d="M45 48 Q43 52 45 56" fill="none" stroke="url(#tool_grad)" stroke-width="1.5" opacity="0.5"/>
  <!-- Gear -->
  <circle cx="82" cy="60" r="12" fill="url(#tool_grad)" opacity="0.15" stroke="url(#tool_grad)" stroke-width="2"/>
  <circle cx="82" cy="60" r="5" fill="none" stroke="url(#tool_grad)" stroke-width="2"/>
  <rect x="79" y="46" width="6" height="6" fill="url(#tool_grad)"/>
  <rect x="79" y="68" width="6" height="6" fill="url(#tool_grad)"/>
  <rect x="92" y="57" width="6" height="6" fill="url(#tool_grad)"/>
  <rect x="66" y="57" width="6" height="6" fill="url(#tool_grad)"/>
</svg>
