<svg xmlns="http://www.w3.org/2000/svg" viewBox="0 0 120 120" fill="none">
  <defs>
    <linearGradient id="ram_grad" x1="0%" y1="0%" x2="100%" y2="100%">
      <stop offset="0%" style="stop-color:#56ab2f;stop-opacity:1" />
      <stop offset="100%" style="stop-color:#a8e063;stop-opacity:1" />
    </linearGradient>
    <filter id="ram_shadow" x="-20%" y="-20%" width="140%" height="140%">
      <feDropShadow dx="0" dy="4" stdDeviation="3" flood-color="#56ab2f" flood-opacity="0.3"/>
    </filter>
  </defs>
  <circle cx="60" cy="60" r="50" fill="url(#ram_grad)" filter="url(#ram_shadow)" opacity="0.1"/>
  <!-- RAM stick base -->
  <rect x="15" y="45" width="90" height="30" rx="3" fill="url(#ram_grad)" opacity="0.15" stroke="url(#ram_grad)" stroke-width="2.5"/>
  <!-- Notch -->
  <rect x="70" y="75" width="8" height="5" fill="#fff"/>
  <!-- Memory chips -->
  <rect x="22" y="50" width="12" height="20" rx="1" fill="url(#ram_grad)" opacity="0.6"/>
  <rect x="37" y="50" width="12" height="20" rx="1" fill="url(#ram_grad)" opacity="0.6"/>
  <rect x="52" y="50" width="12" height="20" rx="1" fill="url(#ram_grad)" opacity="0.6"/>
  <rect x="67" y="50" width="12" height="20" rx="1" fill="url(#ram_grad)" opacity="0.6"/>
  <rect x="82" y="50" width="12" height="20" rx="1" fill="url(#ram_grad)" opacity="0.6"/>
  <!-- Chip labels -->
  <rect x="25" y="53" width="6" height="8" rx="0.5" fill="url(#ram_grad)" opacity="0.3"/>
  <rect x="40" y="53" width="6" height="8" rx="0.5" fill="url(#ram_grad)" opacity="0.3"/>
  <rect x="55" y="53" width="6" height="8" rx="0.5" fill="url(#ram_grad)" opacity="0.3"/>
  <rect x="70" y="53" width="6" height="8" rx="0.5" fill="url(#ram_grad)" opacity="0.3"/>
  <rect x="85" y="53" width="6" height="8" rx="0.5" fill="url(#ram_grad)" opacity="0.3"/>
  <!-- Contact pins -->
  <g opacity="0.8">
    <rect x="20" y="75" width="2" height="6" fill="url(#ram_grad)"/>
    <rect x="25" y="75" width="2" height="6" fill="url(#ram_grad)"/>
    <rect x="30" y="75" width="2" height="6" fill="url(#ram_grad)"/>
    <rect x="35" y="75" width="2" height="6" fill="url(#ram_grad)"/>
    <rect x="40" y="75" width="2" height="6" fill="url(#ram_grad)"/>
    <rect x="45" y="75" width="2" height="6" fill="url(#ram_grad)"/>
    <rect x="50" y="75" width="2" height="6" fill="url(#ram_grad)"/>
    <rect x="55" y="75" width="2" height="6" fill="url(#ram_grad)"/>
    <rect x="60" y="75" width="2" height="6" fill="url(#ram_grad)"/>
    <rect x="65" y="75" width="2" height="6" fill="url(#ram_grad)"/>
    <rect x="83" y="75" width="2" height="6" fill="url(#ram_grad)"/>
    <rect x="88" y="75" width="2" height="6" fill="url(#ram_grad)"/>
    <rect x="93" y="75" width="2" height="6" fill="url(#ram_grad)"/>
    <rect x="98" y="75" width="2" height="6" fill="url(#ram_grad)"/>
  </g>
  <!-- Label -->
  <text x="60" y="38" font-family="Arial" font-size="10" font-weight="bold" fill="url(#ram_grad)" text-anchor="middle">DDR5</text>
</svg>
