<svg xmlns="http://www.w3.org/2000/svg" viewBox="0 0 120 120" fill="none">
  <defs>
    <linearGradient id="scr_grad" x1="0%" y1="0%" x2="100%" y2="100%">
      <stop offset="0%" style="stop-color:#1a2980;stop-opacity:1" />
      <stop offset="100%" style="stop-color:#26d0ce;stop-opacity:1" />
    </linearGradient>
    <filter id="scr_shadow" x="-20%" y="-20%" width="140%" height="140%">
      <feDropShadow dx="0" dy="4" stdDeviation="3" flood-color="#1a2980" flood-opacity="0.3"/>
    </filter>
  </defs>
  <circle cx="60" cy="60" r="50" fill="url(#scr_grad)" filter="url(#scr_shadow)" opacity="0.1"/>
  <!-- Monitor frame -->
  <rect x="18" y="22" width="84" height="58" rx="4" fill="url(#scr_grad)" opacity="0.15" stroke="url(#scr_grad)" stroke-width="2.5"/>
  <!-- Screen -->
  <rect x="23" y="27" width="74" height="48" rx="2" fill="url(#scr_grad)" opacity="0.2"/>
  <!-- Screen content simulation -->
  <rect x="28" y="32" width="24" height="14" rx="2" fill="url(#scr_grad)" opacity="0.5"/>
  <rect x="56" y="32" width="36" height="6" rx="1" fill="url(#scr_grad)" opacity="0.3"/>
  <rect x="56" y="40" width="30" height="3" rx="1" fill="url(#scr_grad)" opacity="0.2"/>
  <rect x="56" y="45" width="34" height="3" rx="1" fill="url(#scr_grad)" opacity="0.2"/>
  <rect x="28" y="50" width="64" height="20" rx="2" fill="url(#scr_grad)" opacity="0.15"/>
  <!-- Graph bars -->
  <rect x="33" y="60" width="6" height="8" fill="url(#scr_grad)" opacity="0.6"/>
  <rect x="42" y="55" width="6" height="13" fill="url(#scr_grad)" opacity="0.6"/>
  <rect x="51" y="52" width="6" height="16" fill="url(#scr_grad)" opacity="0.6"/>
  <rect x="60" y="57" width="6" height="11" fill="url(#scr_grad)" opacity="0.6"/>
  <rect x="69" y="54" width="6" height="14" fill="url(#scr_grad)" opacity="0.6"/>
  <rect x="78" y="50" width="6" height="18" fill="url(#scr_grad)" opacity="0.6"/>
  <!-- Stand -->
  <rect x="52" y="80" width="16" height="8" fill="url(#scr_grad)" opacity="0.5"/>
  <ellipse cx="60" cy="92" rx="22" ry="5" fill="url(#scr_grad)" opacity="0.3"/>
  <!-- Brightness indicator -->
  <circle cx="60" cy="73" r="2" fill="url(#scr_grad)"/>
</svg>
