<svg xmlns="http://www.w3.org/2000/svg" viewBox="0 0 120 120" fill="none">
  <defs>
    <linearGradient id="pcb_grad" x1="0%" y1="0%" x2="100%" y2="100%">
      <stop offset="0%" style="stop-color:#134e5e;stop-opacity:1" />
      <stop offset="100%" style="stop-color:#71b280;stop-opacity:1" />
    </linearGradient>
    <filter id="pcb_shadow" x="-20%" y="-20%" width="140%" height="140%">
      <feDropShadow dx="0" dy="4" stdDeviation="3" flood-color="#134e5e" flood-opacity="0.3"/>
    </filter>
  </defs>
  <circle cx="60" cy="60" r="50" fill="url(#pcb_grad)" filter="url(#pcb_shadow)" opacity="0.1"/>
  <!-- Main PCB board -->
  <rect x="20" y="25" width="80" height="70" rx="3" fill="url(#pcb_grad)" opacity="0.15" stroke="url(#pcb_grad)" stroke-width="2.5"/>
  <!-- CPU socket -->
  <rect x="50" y="35" width="25" height="25" rx="2" fill="url(#pcb_grad)" opacity="0.3" stroke="url(#pcb_grad)" stroke-width="1.5"/>
  <rect x="55" y="40" width="15" height="15" rx="1" fill="url(#pcb_grad)" opacity="0.6"/>
  <!-- RAM slots -->
  <rect x="80" y="30" width="15" height="5" rx="1" fill="url(#pcb_grad)" opacity="0.5"/>
  <rect x="80" y="38" width="15" height="5" rx="1" fill="url(#pcb_grad)" opacity="0.5"/>
  <rect x="80" y="46" width="15" height="5" rx="1" fill="url(#pcb_grad)" opacity="0.4"/>
  <rect x="80" y="54" width="15" height="5" rx="1" fill="url(#pcb_grad)" opacity="0.4"/>
  <!-- Capacitors -->
  <circle cx="30" cy="35" r="4" fill="url(#pcb_grad)" opacity="0.7"/>
  <circle cx="40" cy="35" r="4" fill="url(#pcb_grad)" opacity="0.7"/>
  <circle cx="30" cy="45" r="3" fill="url(#pcb_grad)" opacity="0.5"/>
  <circle cx="40" cy="45" r="3" fill="url(#pcb_grad)" opacity="0.5"/>
  <!-- PCIe slot -->
  <rect x="25" y="68" width="50" height="8" rx="1" fill="url(#pcb_grad)" opacity="0.4"/>
  <rect x="28" y="70" width="44" height="4" rx="0.5" fill="url(#pcb_grad)" opacity="0.2"/>
  <rect x="25" y="80" width="50" height="8" rx="1" fill="url(#pcb_grad)" opacity="0.4"/>
  <!-- Traces/circuits -->
  <path d="M55 55 L55 68 L40 68" fill="none" stroke="url(#pcb_grad)" stroke-width="1" opacity="0.6"/>
  <path d="M70 55 L70 65 L80 65 L80 75" fill="none" stroke="url(#pcb_grad)" stroke-width="1" opacity="0.6"/>
  <path d="M30 50 L30 60 L50 60" fill="none" stroke="url(#pcb_grad)" stroke-width="1" opacity="0.6"/>
  <!-- I/O ports -->
  <rect x="82" y="70" width="12" height="20" rx="1" fill="url(#pcb_grad)" opacity="0.3"/>
  <rect x="84" y="73" width="4" height="4" fill="url(#pcb_grad)" opacity="0.5"/>
  <rect x="84" y="80" width="4" height="4" fill="url(#pcb_grad)" opacity="0.5"/>
</svg>
