<svg xmlns="http://www.w3.org/2000/svg" viewBox="0 0 209 65" width="209" height="65">
<g transform="translate(0,65) scale(0.1,-0.1)" fill="#ffffff" stroke="none">
<path d="M910 568 c-62 -33 -85 -68 -85 -133 0 -80 38 -115 170 -156 61 -18
95 -40 95 -59 0 -5 -8 -16 -17 -25 -24 -25 -101 -15 -174 23 l-59 31 -25 -49
-25 -49 22 -15 c121 -79 292 -87 368 -16 39 37 55 100 38 153 -17 51 -44 71
-153 110 -95 35 -118 54 -95 82 19 23 101 15 158 -14 23 -12 43 -21 45 -21 2
0 14 23 27 50 29 61 23 70 -59 94 -81 24 -177 21 -231 -6z"/>
<path d="M1680 581 c-124 -38 -202 -156 -187 -283 25 -208 256 -297 438 -167
16 11 29 24 29 29 0 12 -60 80 -71 80 -4 0 -25 -11 -45 -25 -68 -46 -163 -25
-200 46 -25 50 -15 131 21 169 56 59 129 62 190 9 l33 -30 38 46 37 46 -23 24
c-48 51 -182 79 -260 56z"/>
<path d="M1290 330 l0 -250 70 0 70 0 0 250 0 250 -70 0 -70 0 0 -250z"/>
<path d="M650 538 l-45 -33 44 -3 c23 -2 45 -1 48 1 2 3 3 19 1 37 l-3 32 -45
-34z"/>
<path d="M468 397 c-42 -28 -47 -36 -48 -69 l0 -38 -61 0 c-59 0 -83 -10 -144
-62 -5 -4 55 -8 133 -8 l142 0 0 70 0 70 105 0 105 0 0 35 0 35 -92 0 c-88 0
-95 -2 -140 -33z"/>
<path d="M580 220 l0 -70 -170 0 -170 0 0 -35 0 -35 205 0 205 0 0 70 c0 68 1
70 25 70 22 0 25 4 25 35 l0 35 -60 0 -60 0 0 -70z"/>
<path d="M55 119 c-21 -17 -41 -32 -44 -34 -2 -3 30 -5 72 -5 l77 0 0 35 c0
33 -2 35 -32 34 -20 0 -49 -12 -73 -30z"/>
<path d="M1931 82 c-8 -16 -7 -25 7 -42 16 -20 21 -21 41 -11 33 18 26 65 -11
69 -18 2 -30 -3 -37 -16z m24 -13 c-5 -16 -3 -20 6 -17 8 3 13 13 12 23 -1 12
2 14 9 7 15 -15 1 -44 -19 -40 -20 4 -31 48 -13 48 7 0 9 -8 5 -21z"/>
</g>
</svg>
