<?xml version="1.0" encoding="UTF-8" standalone="no"?>
<svg xmlns="http://www.w3.org/2000/svg" version="1.0" width="200px" height="100px" viewBox="0 0 3834.000000 1085.000000" preserveAspectRatio="xMidYMid meet">
  <g transform="translate(0.000000,1085.000000) scale(0.100000,-0.100000)" fill="#051D63" stroke="none">
    <path d="M19120 10829 c-861 -60 -1610 -293 -2186 -680 -329 -220 -621 -519 -819 -839 -78 -126 -195 -370 -240 -499 -143 -415 -187 -898 -125 -1381 36 -286 102 -516 214 -745 112 -228 217 -367 455 -606 230 -229 462 -396 751 -540 307 -152 995 -399 1570 -563 146 -41 387 -109 535 -151 370 -105 750 -232 889 -298 208 -100 410 -247 501 -369 106 -142 149 -271 149 -453 0 -219 -54 -356 -193 -496 -125 -125 -257 -196 -472 -254 -177 -47 -293 -60 -554 -59 -254 1 -375 12 -630 59 -549 102 -1269 372 -1845 693 -345 192 -637 396 -990 691 l-36 30 -488 -984 c-269 -541 -487 -988 -485 -993 6 -16 214 -179 379 -296 926 -660 2176 -1119 3375 -1241 1311 -132 2529 107 3369 662 303 201 586 482 785 778 235 350 368 726 423 1190 16 142 16 586 -1 730 -74 642 -289 1082 -744 1522 -256 248 -523 428 -847 571 -400 177 -889 349 -1570 552 -513 153 -1045 332 -1221 411 -269 121 -499 299 -597 462 -46 77 -79 176 -92 280 -24 197 31 371 159 498 136 136 344 219 620 249 150 17 463 7 643 -19 752 -111 1733 -462 2526 -906 95 -53 175 -95 177 -93 14 16 945 2003 942 2012 -12 30 -456 276 -717 397 -826 382 -1750 617 -2678 679 -176 11 -761 11 -932 -1z"></path>
    <path d="M33350 10794 c-934 -65 -1696 -292 -2425 -722 -836 -494 -1496 -1208 -1911 -2067 -245 -509 -385 -1013 -455 -1640 -17 -156 -23 -737 -10 -931 76 -1088 455 -2045 1135 -2869 125 -151 445 -472 596 -597 763 -631 1642 -1012 2615 -1132 251 -31 400 -40 700 -40 314 0 425 7 695 45 986 139 2043 622 2875 1316 163 136 467 432 461 449 -3 7 -334 366 -736 799 l-732 785 -121 -116 c-571 -547 -1341 -928 -2029 -1003 -226 -25 -557 -8 -791 40 -1016 210 -1804 1033 -2022 2114 -45 224 -58 363 -58 630 -1 252 7 352 44 565 109 630 440 1231 893 1619 381 326 806 522 1301 597 168 26 563 26 720 1 724 -116 1451 -549 1985 -1180 40 -48 77 -86 81 -85 6 2 921 1103 1377 1657 l86 104 -150 146 c-377 371 -799 668 -1304 921 -636 318 -1242 500 -1920 576 -138 15 -757 28 -900 18z"></path>
    <path d="M24750 5810 l0 -4840 1265 0 1265 0 0 4840 0 4840 -1265 0 -1265 0 0 -4840z"></path>
    <path d="M12491 9843 l-955 -678 954 -3 c524 -1 955 -1 957 1 2 2 2 308 1 681 l-3 677 -954 -678z"></path>
    <path d="M8988 7108 l-958 -681 0 -683 0 -684 -1136 0 -1135 0 -947 -672 c-521 -369 -951 -675 -957 -680 -5 -4 1241 -8 2768 -8 l2777 0 0 1365 0 1365 2020 0 2020 0 0 680 0 680 -1747 0 -1748 -1 -957 -681z"></path>
    <path d="M11070 3700 l0 -1360 -3225 0 -3225 0 0 -685 0 -685 3905 0 3905 0 0 1365 0 1365 505 0 505 0 0 680 0 680 -1185 0 -1185 0 0 -1360z"></path>
    <path d="M985 1669 c-517 -368 -949 -676 -960 -684 -17 -12 180 -14 1443 -14 l1462 -1 0 685 0 685 -502 -1 -503 -1 -940 -669z"></path>
    <path d="M37505 1396 c-300 -58 -526 -299 -566 -604 -30 -229 69 -480 244 -622 72 -59 196 -123 282 -146 80 -21 261 -20 340 1 251 66 444 258 511 505 23 87 23 262 0 350 -65 244 -261 442 -501 505 -85 22 -226 27 -310 11z m250 -111 c268 -56 475 -309 475 -580 0 -188 -111 -388 -273 -495 -192 -126 -452 -126 -644 0 -162 106 -274 312 -273 502 1 262 210 516 470 572 85 19 159 19 245 1z"></path>
    <path d="M37420 706 l0 -376 50 0 50 0 0 155 0 155 53 0 c39 0 58 -5 69 -17 8 -10 50 -80 94 -155 l79 -138 57 0 c32 0 58 3 58 6 0 3 -40 73 -90 156 -49 82 -90 151 -90 154 0 2 8 4 18 4 27 0 95 48 120 84 12 18 26 53 30 78 20 105 -21 198 -105 239 -44 22 -63 24 -220 27 l-173 3 0 -375z m323 280 c52 -22 70 -50 74 -114 3 -45 0 -64 -17 -90 -29 -48 -73 -62 -185 -62 l-95 0 0 140 0 140 95 0 c58 0 108 -5 128 -14z"></path>
  </g>
</svg>
