<svg width="24" height="24" viewBox="0 0 24 24" fill="none" xmlns="http://www.w3.org/2000/svg">
  <path d="M20,3H4A1,1,0,0,0,3,4V20a1,1,0,0,0,1,1H20a1,1,0,0,0,1-1V4A1,1,0,0,0,20,3ZM12,15a3,3,0,1,1,3-3A3,3,0,0,1,12,15Z" fill="#1f6391" opacity="0.25"/>
  <path d="M12,9a3,3,0,1,1-3,3A3,3,0,0,1,12,9Zm9,11V4a1,1,0,0,0-1-1H4A1,1,0,0,0,3,4V20a1,1,0,0,0,1,1H20A1,1,0,0,0,21,20Z" stroke="#1f6391" stroke-width="2" stroke-linecap="round" stroke-linejoin="round" fill="none"/>
  <circle cx="17" cy="7" r="1" fill="#1f6391"/>
</svg>
