<svg width="24" height="24" viewBox="0 0 24 24" fill="none" xmlns="http://www.w3.org/2000/svg">
  <path d="M16.5 2h-3.1v14.5c0 1.5-1.2 2.7-2.7 2.7s-2.7-1.2-2.7-2.7 1.2-2.7 2.7-2.7c.26 0 .52.04.76.1V10.7a6.1 6.1 0 0 0-.76-.05C8.1 10.65 5.5 13.25 5.5 16.5S8.1 22 11.4 22s5.9-2.75 5.9-6.13V8.4a9.43 9.43 0 0 0 5.55 1.8V7.12a6.35 6.35 0 0 1-5.93-5.12H16.5z" fill="#1f6391" opacity="0.25"/>
  <path d="M16.5 2h-3.1v14.5c0 1.5-1.2 2.7-2.7 2.7s-2.7-1.2-2.7-2.7 1.2-2.7 2.7-2.7c.26 0 .52.04.76.1V10.7a6.1 6.1 0 0 0-.76-.05C8.1 10.65 5.5 13.25 5.5 16.5S8.1 22 11.4 22s5.9-2.75 5.9-6.13V8.4a9.43 9.43 0 0 0 5.55 1.8V7.12a6.35 6.35 0 0 1-5.93-5.12H16.5z" stroke="#1f6391" stroke-width="1.5" stroke-linecap="round" stroke-linejoin="round" fill="none"/>
</svg>
