<svg width="24" height="24" viewBox="0 0 24 24" fill="none" xmlns="http://www.w3.org/2000/svg">
  <path d="M4.5,19.5a3,3,0,0,1,0-4.24L6.76,13A3,3,0,0,1,11,13a3,3,0,0,1,0,4.24L8.74,19.5A3,3,0,0,1,4.5,19.5ZM17.24,11,20,8.24A3,3,0,0,0,20,4a3,3,0,0,0-4.24,0L13,6.76A3,3,0,0,0,13,11A3,3,0,0,0,17.24,11Z" fill="#1f6391" opacity="0.25"/>
  <path d="M4.5,19.5a3,3,0,0,1,0-4.24L6.76,13A3,3,0,0,1,11,13a3,3,0,0,1,0,4.24L8.74,19.5A3,3,0,0,1,4.5,19.5ZM17.24,11,20,8.24A3,3,0,0,0,20,4a3,3,0,0,0-4.24,0L13,6.76A3,3,0,0,0,13,11A3,3,0,0,0,17.24,11ZM10,14l4-4" stroke="#1f6391" stroke-width="2" stroke-linecap="round" stroke-linejoin="round" fill="none"/>
</svg>
