<?xml version="1.0" encoding="utf-8"?>
<!--
  icon_tipo_orden_uno.svg  —  Crear Nueva Orden de Servicio
  Concept : CPU / Microchip tecnológico
  Palette : #194F82 (navy) · #56ACE0 (sky blue) · #FFC10D (amber)
  Anims   : 1) Anillos girando (opuestos)
            2) Chip flotando
            3) Rayo pulsando (scale)
            4) Nodos ámbar en cascada
            5) Puntos de señal viajando (4 trazos)
            6) Scan line barriendo el área del chip
            7) Bloque ámbar parpadeando
-->
<svg xmlns="http://www.w3.org/2000/svg" viewBox="0 0 100 100" width="800px" height="800px">

  <!-- ═══════════════════════  DEFINICIONES  ═══════════════════════ -->
  <defs>

    <radialGradient id="bgGrad" cx="42%" cy="38%" r="65%">
      <stop offset="0%"   stop-color="#1e5c99"/>
      <stop offset="100%" stop-color="#0a2545"/>
    </radialGradient>

    <radialGradient id="innerGrad" cx="50%" cy="50%" r="55%">
      <stop offset="0%"   stop-color="#17406e"/>
      <stop offset="100%" stop-color="#091d3e"/>
    </radialGradient>

    <filter id="glow" x="-30%" y="-30%" width="160%" height="160%">
      <feGaussianBlur stdDeviation="1.8" result="blur"/>
      <feMerge><feMergeNode in="blur"/><feMergeNode in="SourceGraphic"/></feMerge>
    </filter>

    <filter id="chipGlow" x="-10%" y="-10%" width="120%" height="120%">
      <feGaussianBlur stdDeviation="0.9" result="blur"/>
      <feMerge><feMergeNode in="blur"/><feMergeNode in="SourceGraphic"/></feMerge>
    </filter>

    <!-- Paths de señal para animateMotion (del chip hacia afuera) -->
    <path id="trace-top"    d="M50,18 L50,7"/>
    <path id="trace-right"  d="M82,50 L93,50"/>
    <path id="trace-bottom" d="M50,82 L50,93"/>
    <path id="trace-left"   d="M18,50 L7,50"/>

  </defs>

  <!-- ═══════════════════════  ANIMACIONES CSS  ════════════════════ -->
  <style>
    /* 1. ANILLOS: giran en sentidos opuestos */
    #ring-outer {
      transform-box: fill-box;
      transform-origin: center;
      animation: spin-cw 14s linear infinite;
    }
    #ring-inner {
      transform-box: fill-box;
      transform-origin: center;
      animation: spin-ccw 22s linear infinite;
    }
    @keyframes spin-cw  { to { transform: rotate(360deg);  } }
    @keyframes spin-ccw { to { transform: rotate(-360deg); } }

    /* 2. CHIP: flota suavemente — GPU composited */
    #chip-group {
      transform-box: fill-box;
      transform-origin: center;
      will-change: transform;
      animation: float-chip 4.2s ease-in-out infinite;
    }
    @keyframes float-chip {
      0%, 100% { transform: translate3d(0, 0, 0);      }
      50%       { transform: translate3d(0, -2.5px, 0); }
    }

    /* 3. RAYO: pulso de opacidad — SIN scale para evitar recalcular el blur */
    #bolt-group {
      will-change: opacity;
      animation: bolt-pulse 2.4s ease-in-out infinite;
    }
    @keyframes bolt-pulse {
      0%, 100% { opacity: 1;    }
      50%       { opacity: 0.6; }
    }

    /* 4. NODOS ámbar centrales: parpadeo escalonado — GPU composited */
    .node-amber {
      will-change: opacity;
      animation: node-fade 2s ease-in-out infinite;
    }
    #node-top    { animation-delay: 0s;    }
    #node-right  { animation-delay: 0.5s;  }
    #node-bottom { animation-delay: 1s;    }
    #node-left   { animation-delay: 1.5s;  }
    @keyframes node-fade {
      0%, 100% { opacity: 0.9; }
      50%       { opacity: 0.15; }
    }

    /* 7. BLOQUE ámbar esquina: pulso de opacidad */
    #corner-amber {
      will-change: opacity;
      animation: amber-pulse 3.2s ease-in-out infinite;
    }
    @keyframes amber-pulse {
      0%, 100% { opacity: 1;    }
      50%       { opacity: 0.3; }
    }
  </style>

  <!-- ═══════════════════  FONDO CIRCULAR (estático)  ════════════════ -->
  <circle cx="50" cy="50" r="50" fill="url(#bgGrad)"/>

  <!-- ═══════════════════  ANILLOS (solo rotan, no flotan)  ══════════ -->
  <circle id="ring-outer" cx="50" cy="50" r="46.5" fill="none" stroke="#56ACE0"
          stroke-width="0.5" stroke-dasharray="5 3.5" opacity="0.35"/>
  <circle id="ring-inner" cx="50" cy="50" r="42"   fill="none" stroke="#56ACE0"
          stroke-width="0.3" opacity="0.15"/>

  <!-- ═══════════  CHIP-GROUP  — todo este grupo flota junto  ════════ -->
  <g id="chip-group">

    <!-- ── Trazos de circuito SUPERIORES ── -->
    <line x1="34" y1="18" x2="34" y2="9"  stroke="#56ACE0" stroke-width="1.2" stroke-linecap="round" opacity="0.75"/>
    <line x1="50" y1="18" x2="50" y2="7"  stroke="#FFC10D" stroke-width="1.5" stroke-linecap="round" opacity="0.9"/>
    <line x1="66" y1="18" x2="66" y2="9"  stroke="#56ACE0" stroke-width="1.2" stroke-linecap="round" opacity="0.75"/>
    <circle cx="34" cy="9"  r="1.8" fill="#56ACE0" opacity="0.65"/>
    <circle id="node-top"    cx="50" cy="7"  r="2.2" fill="#FFC10D" class="node-amber"/>
    <circle cx="66" cy="9"  r="1.8" fill="#56ACE0" opacity="0.65"/>

    <!-- ── Trazos INFERIORES ── -->
    <line x1="34" y1="82" x2="34" y2="91" stroke="#56ACE0" stroke-width="1.2" stroke-linecap="round" opacity="0.75"/>
    <line x1="50" y1="82" x2="50" y2="93" stroke="#FFC10D" stroke-width="1.5" stroke-linecap="round" opacity="0.9"/>
    <line x1="66" y1="82" x2="66" y2="91" stroke="#56ACE0" stroke-width="1.2" stroke-linecap="round" opacity="0.75"/>
    <circle cx="34" cy="91" r="1.8" fill="#56ACE0" opacity="0.65"/>
    <circle id="node-bottom" cx="50" cy="93" r="2.2" fill="#FFC10D" class="node-amber"/>
    <circle cx="66" cy="91" r="1.8" fill="#56ACE0" opacity="0.65"/>

    <!-- ── Trazos IZQUIERDOS ── -->
    <line x1="18" y1="34" x2="9"  y2="34" stroke="#56ACE0" stroke-width="1.2" stroke-linecap="round" opacity="0.75"/>
    <line x1="18" y1="50" x2="7"  y2="50" stroke="#FFC10D" stroke-width="1.5" stroke-linecap="round" opacity="0.9"/>
    <line x1="18" y1="66" x2="9"  y2="66" stroke="#56ACE0" stroke-width="1.2" stroke-linecap="round" opacity="0.75"/>
    <circle cx="9"  cy="34" r="1.8" fill="#56ACE0" opacity="0.65"/>
    <circle id="node-left"   cx="7"  cy="50" r="2.2" fill="#FFC10D" class="node-amber"/>
    <circle cx="9"  cy="66" r="1.8" fill="#56ACE0" opacity="0.65"/>

    <!-- ── Trazos DERECHOS ── -->
    <line x1="82" y1="34" x2="91" y2="34" stroke="#56ACE0" stroke-width="1.2" stroke-linecap="round" opacity="0.75"/>
    <line x1="82" y1="50" x2="93" y2="50" stroke="#FFC10D" stroke-width="1.5" stroke-linecap="round" opacity="0.9"/>
    <line x1="82" y1="66" x2="91" y2="66" stroke="#56ACE0" stroke-width="1.2" stroke-linecap="round" opacity="0.75"/>
    <circle cx="91" cy="34" r="1.8" fill="#56ACE0" opacity="0.65"/>
    <circle id="node-right"  cx="93" cy="50" r="2.2" fill="#FFC10D" class="node-amber"/>
    <circle cx="91" cy="66" r="1.8" fill="#56ACE0" opacity="0.65"/>

    <!-- ── 5. SEÑALES VIAJANDO: puntos blancos con animateMotion ── -->
    <!-- Señal superior (chip → arriba) -->
    <circle r="1.4" fill="#fffbe6" opacity="0">
      <animateMotion dur="1.8s" begin="0s" repeatCount="indefinite" calcMode="linear">
        <mpath href="#trace-top"/>
      </animateMotion>
      <animate attributeName="opacity" values="0;0.95;0.95;0"
               keyTimes="0;0.07;0.87;1" dur="1.8s" begin="0s" repeatCount="indefinite"/>
    </circle>
    <!-- Señal derecha -->
    <circle r="1.4" fill="#fffbe6" opacity="0">
      <animateMotion dur="1.8s" begin="0.45s" repeatCount="indefinite" calcMode="linear">
        <mpath href="#trace-right"/>
      </animateMotion>
      <animate attributeName="opacity" values="0;0.95;0.95;0"
               keyTimes="0;0.07;0.87;1" dur="1.8s" begin="0.45s" repeatCount="indefinite"/>
    </circle>
    <!-- Señal inferior -->
    <circle r="1.4" fill="#fffbe6" opacity="0">
      <animateMotion dur="1.8s" begin="0.9s" repeatCount="indefinite" calcMode="linear">
        <mpath href="#trace-bottom"/>
      </animateMotion>
      <animate attributeName="opacity" values="0;0.95;0.95;0"
               keyTimes="0;0.07;0.87;1" dur="1.8s" begin="0.9s" repeatCount="indefinite"/>
    </circle>
    <!-- Señal izquierda -->
    <circle r="1.4" fill="#fffbe6" opacity="0">
      <animateMotion dur="1.8s" begin="1.35s" repeatCount="indefinite" calcMode="linear">
        <mpath href="#trace-left"/>
      </animateMotion>
      <animate attributeName="opacity" values="0;0.95;0.95;0"
               keyTimes="0;0.07;0.87;1" dur="1.8s" begin="1.35s" repeatCount="indefinite"/>
    </circle>

    <!-- ── CUERPO DEL CHIP ── -->
    <rect x="23" y="23" width="54" height="54" rx="7" ry="7" fill="#56ACE0" filter="url(#chipGlow)"/>
    <rect x="24.5" y="24.5" width="51" height="51" rx="6" ry="6" fill="none" stroke="#194F82" stroke-width="0.8" opacity="0.5"/>
    <rect x="30" y="30" width="40" height="40" rx="4" ry="4" fill="url(#innerGrad)"/>

    <!-- ── PINES (12 total) ── -->
    <rect x="31" y="18" width="6" height="5" rx="1.5" ry="1.5" fill="#FFC10D"/>
    <rect x="47" y="18" width="6" height="5" rx="1.5" ry="1.5" fill="#FFC10D"/>
    <rect x="63" y="18" width="6" height="5" rx="1.5" ry="1.5" fill="#FFC10D"/>
    <rect x="31" y="77" width="6" height="5" rx="1.5" ry="1.5" fill="#FFC10D"/>
    <rect x="47" y="77" width="6" height="5" rx="1.5" ry="1.5" fill="#FFC10D"/>
    <rect x="63" y="77" width="6" height="5" rx="1.5" ry="1.5" fill="#FFC10D"/>
    <rect x="18" y="31" width="5" height="6" rx="1.5" ry="1.5" fill="#FFC10D"/>
    <rect x="18" y="47" width="5" height="6" rx="1.5" ry="1.5" fill="#FFC10D"/>
    <rect x="18" y="63" width="5" height="6" rx="1.5" ry="1.5" fill="#FFC10D"/>
    <rect x="77" y="31" width="5" height="6" rx="1.5" ry="1.5" fill="#FFC10D"/>
    <rect x="77" y="47" width="5" height="6" rx="1.5" ry="1.5" fill="#FFC10D"/>
    <rect x="77" y="63" width="5" height="6" rx="1.5" ry="1.5" fill="#FFC10D"/>

    <!-- ── CUADRÍCULA interna ── -->
    <line x1="30" y1="43" x2="70" y2="43" stroke="#1a4f8a" stroke-width="0.7" opacity="0.9"/>
    <line x1="30" y1="57" x2="70" y2="57" stroke="#1a4f8a" stroke-width="0.7" opacity="0.9"/>
    <line x1="43" y1="30" x2="43" y2="70" stroke="#1a4f8a" stroke-width="0.7" opacity="0.9"/>
    <line x1="57" y1="30" x2="57" y2="70" stroke="#1a4f8a" stroke-width="0.7" opacity="0.9"/>

    <!-- ── BLOQUES LÓGICOS de esquinas ── -->
    <rect x="31.5" y="31.5" width="9.5" height="9.5" rx="1.5" ry="1.5" fill="#1a6fa8"/>
    <rect x="33.5" y="33.5" width="3.5" height="3.5" rx="0.8" ry="0.8" fill="#56ACE0" opacity="0.85"/>
    <rect x="59"   y="31.5" width="9.5" height="9.5" rx="1.5" ry="1.5" fill="#1a6fa8"/>
    <rect x="61"   y="33.5" width="3.5" height="3.5" rx="0.8" ry="0.8" fill="#56ACE0" opacity="0.85"/>
    <rect x="31.5" y="59"   width="9.5" height="9.5" rx="1.5" ry="1.5" fill="#1a6fa8"/>
    <rect x="33.5" y="61"   width="3.5" height="3.5" rx="0.8" ry="0.8" fill="#56ACE0" opacity="0.85"/>
    <!-- Esquina ámbar (animada) -->
    <rect id="corner-amber" x="59" y="59" width="9.5" height="9.5" rx="1.5" ry="1.5" fill="#b87200"/>
    <rect x="61" y="61" width="3.5" height="3.5" rx="0.8" ry="0.8" fill="#FFC10D" opacity="0.9"/>

    <!-- ── 6. SCAN LINE: barre de arriba a abajo dentro del chip ── -->
    <line x1="31" y1="30" x2="69" y2="30" stroke="#56ACE0" stroke-width="0.9" opacity="0">
      <animate attributeName="y1" from="30" to="70" dur="3.5s"
               repeatCount="indefinite" calcMode="spline"
               keySplines="0.37 0 0.63 1"/>
      <animate attributeName="y2" from="30" to="70" dur="3.5s"
               repeatCount="indefinite" calcMode="spline"
               keySplines="0.37 0 0.63 1"/>
      <animate attributeName="opacity"
               values="0;0.55;0.55;0" keyTimes="0;0.05;0.88;1"
               dur="3.5s" repeatCount="indefinite"/>
    </line>

    <!-- ── 3. RAYO: capa de glow estática + capa animada encima ── -->
    <!-- La capa de glow (blur) es ESTÁTICA — no se recalcula en cada frame -->
    <polygon points="55,34  43,52  49,52  46,67  57,49  51,49"
             fill="#FFC10D" filter="url(#glow)" opacity="0.7"/>
    <!-- La capa animada encima: solo cambia opacity — sin filtro caro -->
    <g id="bolt-group">
      <polygon points="55,34  43,52  49,52  46,67  57,49  51,49"
               fill="#FFC10D"/>
      <polygon points="55,34  50,44  52.5,44"
               fill="#FFFFFF" opacity="0.45"/>
    </g>

  </g><!-- /chip-group -->

</svg>
