<?xml version="1.0" encoding="iso-8859-1"?>
<!-- Uploaded to: SVG Repo, www.svgrepo.com, Generator: SVG Repo Mixer Tools -->
<svg version="1.1" id="Layer_1" xmlns="http://www.w3.org/2000/svg" xmlns:xlink="http://www.w3.org/1999/xlink" 
	 viewBox="0 0 512 512" xml:space="preserve">
<polygon style="fill:#FF9800;" points="411.826,0 411.826,333.913 345.043,333.913 345.043,100.174 66.783,100.174 66.783,333.913 
	0,333.913 0,478.609 33.391,478.609 33.391,512 111.304,512 111.304,478.609 144.696,478.609 144.696,400.696 300.522,400.696 
	300.522,478.609 333.913,478.609 333.913,512 411.826,512 411.826,478.609 445.217,478.609 445.217,33.391 512,33.391 512,0 "/>
<g>
	<polygon style="fill:#57565C;" points="144.696,400.696 111.304,400.696 111.304,367.304 33.391,367.304 33.391,400.696 0,400.696 
		0,478.609 33.391,478.609 33.391,512 111.304,512 111.304,478.609 144.696,478.609 	"/>
	<polygon style="fill:#57565C;" points="445.217,400.696 411.826,400.696 411.826,367.304 333.913,367.304 333.913,400.696 
		300.522,400.696 300.522,478.609 333.913,478.609 333.913,512 411.826,512 411.826,478.609 445.217,478.609 	"/>
</g>
<rect x="133.565" y="166.957" width="144.696" height="33.391"/>
<path d="M411.826,0v333.913h-66.783V100.174H66.783v233.739H0v144.696h33.391v-77.913h77.913v77.913h33.391v-77.913h155.826v77.913
	h33.391v-77.913h77.913v77.913h33.391V33.391H512V0H411.826z M100.174,133.565h211.478v200.348H100.174V133.565z"/>
<rect x="33.391" y="478.609" width="77.913" height="33.391"/>
<rect x="333.913" y="478.609" width="77.913" height="33.391"/>
</svg>