<svg width="48" height="48" viewBox="0 0 48 48" xmlns="http://www.w3.org/2000/svg">
  <defs>
    <!-- Gradiente para el cielo -->
    <linearGradient id="skyGradient" x1="0%" y1="0%" x2="0%" y2="100%">
      <stop offset="0%" style="stop-color:#42a5f5;stop-opacity:1" />
      <stop offset="100%" style="stop-color:#90caf9;stop-opacity:1" />
    </linearGradient>
    
    <!-- Gradiente para las montañas principales -->
    <linearGradient id="mountainGradient1" x1="0%" y1="0%" x2="0%" y2="100%">
      <stop offset="0%" style="stop-color:#5d4037;stop-opacity:1" />
      <stop offset="50%" style="stop-color:#795548;stop-opacity:1" />
      <stop offset="100%" style="stop-color:#4e342e;stop-opacity:1" />
    </linearGradient>
    
    <!-- Gradiente para montañas de fondo -->
    <linearGradient id="mountainGradient2" x1="0%" y1="0%" x2="0%" y2="100%">
      <stop offset="0%" style="stop-color:#6d4c41;stop-opacity:0.7" />
      <stop offset="100%" style="stop-color:#5d4037;stop-opacity:0.7" />
    </linearGradient>
    
    <!-- Gradiente para nieve en picos -->
    <linearGradient id="snowGradient" x1="0%" y1="0%" x2="0%" y2="100%">
      <stop offset="0%" style="stop-color:#ffffff;stop-opacity:1" />
      <stop offset="100%" style="stop-color:#e3f2fd;stop-opacity:0.9" />
    </linearGradient>
  </defs>
  
  <!-- Fondo de cielo -->
  <rect width="48" height="48" fill="url(#skyGradient)"/>
  
  <!-- Sol -->
  <circle cx="38" cy="10" r="5" fill="#ffd54f" opacity="0.9">
    <animate attributeName="opacity" values="0.7;0.9;0.7" dur="4s" repeatCount="indefinite"/>
  </circle>
  <circle cx="38" cy="10" r="6" fill="#ffd54f" opacity="0.3">
    <animate attributeName="r" values="6;7;6" dur="4s" repeatCount="indefinite"/>
    <animate attributeName="opacity" values="0.3;0.1;0.3" dur="4s" repeatCount="indefinite"/>
  </circle>
  
  <!-- Montaña de fondo (izquierda) -->
  <path d="M 0 35 L 15 20 L 30 35 Z" fill="url(#mountainGradient2)" opacity="0.6"/>
  
  <!-- Montaña de fondo (derecha) -->
  <path d="M 25 35 L 38 22 L 48 35 Z" fill="url(#mountainGradient2)" opacity="0.5"/>
  
  <!-- Montaña principal (El Cerro de la Silla característico) -->
  <path d="M 0 38 L 12 28 L 18 32 L 24 18 L 30 32 L 36 28 L 48 38 Z" 
        fill="url(#mountainGradient1)" 
        stroke="#4e342e" 
        stroke-width="0.5"/>
  
  <!-- Detalles de sombras en montaña -->
  <path d="M 12 28 L 15 30 L 18 32 L 15 38 L 12 38 Z" fill="#4e342e" opacity="0.3"/>
  <path d="M 30 32 L 33 34 L 36 28 L 33 38 L 30 38 Z" fill="#4e342e" opacity="0.3"/>
  
  <!-- Nieve en los picos -->
  <path d="M 22 18 L 24 18 L 26 22 L 22 22 Z" fill="url(#snowGradient)"/>
  <path d="M 23 22 L 25 26 L 21 26 Z" fill="url(#snowGradient)" opacity="0.7"/>
  
  <!-- Nubes animadas -->
  <!-- Nube 1 (grande, movimiento lento) -->
  <g opacity="0.85">
    <ellipse cx="0" cy="12" rx="6" ry="4" fill="#ffffff">
      <animate attributeName="cx" from="-10" to="58" dur="25s" repeatCount="indefinite"/>
    </ellipse>
    <ellipse cx="5" cy="11" rx="5" ry="3.5" fill="#ffffff">
      <animate attributeName="cx" from="-5" to="63" dur="25s" repeatCount="indefinite"/>
    </ellipse>
    <ellipse cx="8" cy="13" rx="5.5" ry="3.8" fill="#ffffff">
      <animate attributeName="cx" from="-2" to="66" dur="25s" repeatCount="indefinite"/>
    </ellipse>
  </g>
  
  <!-- Nube 2 (mediana, movimiento medio) -->
  <g opacity="0.75">
    <ellipse cx="0" cy="20" rx="5" ry="3" fill="#ffffff">
      <animate attributeName="cx" from="-8" to="56" dur="18s" repeatCount="indefinite"/>
    </ellipse>
    <ellipse cx="4" cy="19" rx="4" ry="2.8" fill="#ffffff">
      <animate attributeName="cx" from="-4" to="60" dur="18s" repeatCount="indefinite"/>
    </ellipse>
    <ellipse cx="7" cy="21" rx="4.5" ry="3" fill="#ffffff">
      <animate attributeName="cx" from="-1" to="63" dur="18s" repeatCount="indefinite"/>
    </ellipse>
  </g>
  
  <!-- Nube 3 (pequeña, movimiento rápido) -->
  <g opacity="0.7">
    <ellipse cx="0" cy="16" rx="4" ry="2.5" fill="#ffffff">
      <animate attributeName="cx" from="-6" to="54" dur="12s" repeatCount="indefinite"/>
    </ellipse>
    <ellipse cx="3" cy="15.5" rx="3.5" ry="2.3" fill="#ffffff">
      <animate attributeName="cx" from="-3" to="57" dur="12s" repeatCount="indefinite"/>
    </ellipse>
    <ellipse cx="5.5" cy="16.5" rx="3.8" ry="2.4" fill="#ffffff">
      <animate attributeName="cx" from="-0.5" to="59.5" dur="12s" repeatCount="indefinite"/>
    </ellipse>
  </g>
  
  <!-- Vegetación en la base -->
  <ellipse cx="8" cy="40" rx="4" ry="2" fill="#558b2f" opacity="0.6"/>
  <ellipse cx="20" cy="41" rx="5" ry="2.5" fill="#558b2f" opacity="0.5"/>
  <ellipse cx="35" cy="40" rx="4.5" ry="2.2" fill="#558b2f" opacity="0.6"/>
  <ellipse cx="42" cy="41" rx="3.5" ry="1.8" fill="#558b2f" opacity="0.5"/>
  
  <!-- Pasto base -->
  <rect x="0" y="42" width="48" height="6" fill="#33691e" opacity="0.4"/>
</svg>
