<?xml version="1.0" encoding="utf-8"?><!-- WhatsApp icon - Flat Line style matching project icons -->
<svg fill="#000000" width="800px" height="800px" viewBox="0 0 24 24" xmlns="http://www.w3.org/2000/svg" class="icon flat-line"><path id="secondary" d="M12,3A9,9,0,0,0,4.06,16.2L3,21l4.8-1.06A9,9,0,1,0,12,3ZM15.6,16a1.83,1.83,0,0,1-1.23.87A2.49,2.49,0,0,1,13,16.7a8.55,8.55,0,0,1-2.68-1.63A9.73,9.73,0,0,1,8.26,12.5,3.61,3.61,0,0,1,7.5,10.7,2.09,2.09,0,0,1,8.15,9.2a.71.71,0,0,1,.5-.23h.38c.12,0,.28,0,.43.38s.55,1.42.6,1.52a.37.37,0,0,1,0,.35,1.26,1.26,0,0,1-.2.33c-.1.1-.21.23-.3.3s-.2.17-.08.35a5.14,5.14,0,0,0,.95,1.23,4.62,4.62,0,0,0,1.37.88c.18.1.28.08.38,0s.45-.53.57-.7.25-.15.42-.08,1.08.53,1.27.62.32.15.37.22A1.62,1.62,0,0,1,15.6,16Z" style="fill: rgb(44, 169, 188); stroke-width: 2;"></path><path id="primary" d="M12,3A9,9,0,0,0,4.06,16.2L3,21l4.8-1.06A9,9,0,1,0,12,3ZM15.6,16a1.83,1.83,0,0,1-1.23.87A2.49,2.49,0,0,1,13,16.7a8.55,8.55,0,0,1-2.68-1.63A9.73,9.73,0,0,1,8.26,12.5,3.61,3.61,0,0,1,7.5,10.7,2.09,2.09,0,0,1,8.15,9.2a.71.71,0,0,1,.5-.23h.38c.12,0,.28,0,.43.38s.55,1.42.6,1.52a.37.37,0,0,1,0,.35,1.26,1.26,0,0,1-.2.33c-.1.1-.21.23-.3.3s-.2.17-.08.35a5.14,5.14,0,0,0,.95,1.23,4.62,4.62,0,0,0,1.37.88c.18.1.28.08.38,0s.45-.53.57-.7.25-.15.42-.08,1.08.53,1.27.62.32.15.37.22A1.62,1.62,0,0,1,15.6,16Z" style="fill: none; stroke: rgb(0, 0, 0); stroke-linecap: round; stroke-linejoin: round; stroke-width: 2;"></path></svg>
